<svg xmlns="http://www.w3.org/2000/svg" viewBox="0 0 100 100">
  <title>Dots dark wallpaper</title>
  <rect width="100" height="100" fill="#1A1A1A"/>
  <g fill="#333333">
    <circle cx="10" cy="10" r="1"/>
    <circle cx="30" cy="10" r="1"/>
    <circle cx="50" cy="10" r="1"/>
    <circle cx="70" cy="10" r="1"/>
    <circle cx="90" cy="10" r="1"/>
    <circle cx="20" cy="30" r="1"/>
    <circle cx="40" cy="30" r="1"/>
    <circle cx="60" cy="30" r="1"/>
    <circle cx="80" cy="30" r="1"/>
    <circle cx="10" cy="50" r="1"/>
    <circle cx="30" cy="50" r="1"/>
    <circle cx="50" cy="50" r="1"/>
    <circle cx="70" cy="50" r="1"/>
    <circle cx="90" cy="50" r="1"/>
    <circle cx="20" cy="70" r="1"/>
    <circle cx="40" cy="70" r="1"/>
    <circle cx="60" cy="70" r="1"/>
    <circle cx="80" cy="70" r="1"/>
    <circle cx="10" cy="90" r="1"/>
    <circle cx="30" cy="90" r="1"/>
    <circle cx="50" cy="90" r="1"/>
    <circle cx="70" cy="90" r="1"/>
    <circle cx="90" cy="90" r="1"/>
  </g>
</svg>
